{
	"asset":{
		"generator":"Khronos glTF Blender I/O v3.5.30",
		"version":"2.0"
	},
	"extensionsUsed":[
		"KHR_materials_transmission",
		"KHR_materials_ior"
	],
	"scene":0,
	"scenes":[
		{
			"name":"Scene",
			"nodes":[
				0,
				1,
				2,
				3,
				4,
				5
			]
		}
	],
	"nodes":[
		{
			"mesh":0,
			"name":"0",
			"translation":[
				8.929401397705078,
				-19.940441131591797,
				-17.634796142578125
			]
		},
		{
			"mesh":1,
			"name":"1",
			"translation":[
				7.419788360595703,
				27.365388870239258,
				7.425750255584717
			]
		},
		{
			"mesh":2,
			"name":"2",
			"translation":[
				7.398166656494141,
				11.41427993774414,
				-45.498661041259766
			]
		},
		{
			"mesh":3,
			"name":"3",
			"translation":[
				7.386981964111328,
				3.7565650939941406,
				-3.266022205352783
			]
		},
		{
			"mesh":4,
			"name":"4",
			"translation":[
				7.138553619384766,
				5.316745758056641,
				123.1065673828125
			]
		},
		{
			"mesh":5,
			"name":"5",
			"translation":[
				-56.731563568115234,
				-17.370037078857422,
				-56.227603912353516
			]
		}
	],
	"materials":[
		{
			"doubleSided":true,
			"name":"Material",
			"pbrMetallicRoughness":{
				"baseColorFactor":[
					0.783537745475769,
					0.25415176153182983,
					0.2541521191596985,
					1
				],
				"metallicFactor":0,
				"roughnessFactor":0.5
			}
		},
		{
			"doubleSided":true,
			"name":"Material.001",
			"pbrMetallicRoughness":{
				"baseColorFactor":[
					0.8549926280975342,
					0.5332761406898499,
					0.03433998301625252,
					1
				],
				"metallicFactor":0,
				"roughnessFactor":0.5
			}
		},
		{
			"doubleSided":true,
			"name":"Material.002",
			"pbrMetallicRoughness":{
				"baseColorFactor":[
					0.35153231024742126,
					0.3049870431423187,
					0.29177069664001465,
					1
				],
				"metallicFactor":0,
				"roughnessFactor":0.5
			}
		},
		{
			"doubleSided":true,
			"name":"Material.003",
			"pbrMetallicRoughness":{
				"baseColorFactor":[
					0.7011019587516785,
					0.15292592346668243,
					0.054480329155921936,
					1
				],
				"metallicFactor":0,
				"roughnessFactor":0.5
			}
		},
		{
			"doubleSided":true,
			"extensions":{
				"KHR_materials_transmission":{
					"transmissionFactor":0.8999999761581421
				},
				"KHR_materials_ior":{
					"ior":1.4500000476837158
				}
			},
			"name":"Material.004",
			"pbrMetallicRoughness":{
				"baseColorFactor":[
					0.7230542898178101,
					0.760523796081543,
					0.7758223414421082,
					0.10000000149011612
				],
				"metallicFactor":0,
				"roughnessFactor":0.5
			}
		}
	],
	"meshes":[
		{
			"name":"0",
			"primitives":[
				{
					"attributes":{
						"POSITION":0,
						"NORMAL":1
					},
					"indices":2,
					"material":0
				}
			]
		},
		{
			"name":"1",
			"primitives":[
				{
					"attributes":{
						"POSITION":3,
						"NORMAL":4
					},
					"indices":5,
					"material":1
				}
			]
		},
		{
			"name":"2",
			"primitives":[
				{
					"attributes":{
						"POSITION":6,
						"NORMAL":7
					},
					"indices":8,
					"material":2
				}
			]
		},
		{
			"name":"3",
			"primitives":[
				{
					"attributes":{
						"POSITION":9,
						"NORMAL":10
					},
					"indices":11,
					"material":3
				}
			]
		},
		{
			"name":"4",
			"primitives":[
				{
					"attributes":{
						"POSITION":12,
						"NORMAL":13
					},
					"indices":14,
					"material":1
				}
			]
		},
		{
			"name":"5",
			"primitives":[
				{
					"attributes":{
						"POSITION":15,
						"NORMAL":16
					},
					"indices":17,
					"material":4
				}
			]
		}
	],
	"accessors":[
		{
			"bufferView":0,
			"componentType":5126,
			"count":5421,
			"max":[
				98.33880615234375,
				155.983154296875,
				178.40692138671875
			],
			"min":[
				-101.66119384765625,
				-28.016845703125,
				-178.59307861328125
			],
			"type":"VEC3"
		},
		{
			"bufferView":1,
			"componentType":5126,
			"count":5421,
			"type":"VEC3"
		},
		{
			"bufferView":2,
			"componentType":5123,
			"count":10932,
			"type":"SCALAR"
		},
		{
			"bufferView":3,
			"componentType":5126,
			"count":4330,
			"max":[
				24.428421020507812,
				70.57731628417969,
				114.56536865234375
			],
			"min":[
				-25.571578979492188,
				-71.82267761230469,
				-182.23362731933594
			],
			"type":"VEC3"
		},
		{
			"bufferView":4,
			"componentType":5126,
			"count":4330,
			"type":"VEC3"
		},
		{
			"bufferView":5,
			"componentType":5123,
			"count":8190,
			"type":"SCALAR"
		},
		{
			"bufferView":6,
			"componentType":5126,
			"count":2157,
			"max":[
				28.495040893554688,
				42.638427734375,
				173.77078247070312
			],
			"min":[
				-27.629959106445312,
				-30.871566772460938,
				-127.92521667480469
			],
			"type":"VEC3"
		},
		{
			"bufferView":7,
			"componentType":5126,
			"count":2157,
			"type":"VEC3"
		},
		{
			"bufferView":8,
			"componentType":5123,
			"count":3960,
			"type":"SCALAR"
		},
		{
			"bufferView":9,
			"componentType":5126,
			"count":5555,
			"max":[
				20.8812255859375,
				93.2021484375,
				142.03814697265625
			],
			"min":[
				-21.6187744140625,
				-97.21385192871094,
				-168.96185302734375
			],
			"type":"VEC3"
		},
		{
			"bufferView":10,
			"componentType":5126,
			"count":5555,
			"type":"VEC3"
		},
		{
			"bufferView":11,
			"componentType":5123,
			"count":10944,
			"type":"SCALAR"
		},
		{
			"bufferView":12,
			"componentType":5126,
			"count":4331,
			"max":[
				19.336654663085938,
				11.249969482421875,
				44.665557861328125
			],
			"min":[
				-18.870346069335938,
				-11.250030517578125,
				-32.834442138671875
			],
			"type":"VEC3"
		},
		{
			"bufferView":13,
			"componentType":5126,
			"count":4331,
			"type":"VEC3"
		},
		{
			"bufferView":14,
			"componentType":5123,
			"count":7230,
			"type":"SCALAR"
		},
		{
			"bufferView":15,
			"componentType":5126,
			"count":480,
			"max":[
				19.999771118164062,
				38.912750244140625,
				54.999725341796875
			],
			"min":[
				-20.000228881835938,
				-31.087249755859375,
				-55.000274658203125
			],
			"type":"VEC3"
		},
		{
			"bufferView":16,
			"componentType":5126,
			"count":480,
			"type":"VEC3"
		},
		{
			"bufferView":17,
			"componentType":5123,
			"count":936,
			"type":"SCALAR"
		}
	],
	"bufferViews":[
		{
			"buffer":0,
			"byteLength":65052,
			"byteOffset":0,
			"target":34962
		},
		{
			"buffer":0,
			"byteLength":65052,
			"byteOffset":65052,
			"target":34962
		},
		{
			"buffer":0,
			"byteLength":21864,
			"byteOffset":130104,
			"target":34963
		},
		{
			"buffer":0,
			"byteLength":51960,
			"byteOffset":151968,
			"target":34962
		},
		{
			"buffer":0,
			"byteLength":51960,
			"byteOffset":203928,
			"target":34962
		},
		{
			"buffer":0,
			"byteLength":16380,
			"byteOffset":255888,
			"target":34963
		},
		{
			"buffer":0,
			"byteLength":25884,
			"byteOffset":272268,
			"target":34962
		},
		{
			"buffer":0,
			"byteLength":25884,
			"byteOffset":298152,
			"target":34962
		},
		{
			"buffer":0,
			"byteLength":7920,
			"byteOffset":324036,
			"target":34963
		},
		{
			"buffer":0,
			"byteLength":66660,
			"byteOffset":331956,
			"target":34962
		},
		{
			"buffer":0,
			"byteLength":66660,
			"byteOffset":398616,
			"target":34962
		},
		{
			"buffer":0,
			"byteLength":21888,
			"byteOffset":465276,
			"target":34963
		},
		{
			"buffer":0,
			"byteLength":51972,
			"byteOffset":487164,
			"target":34962
		},
		{
			"buffer":0,
			"byteLength":51972,
			"byteOffset":539136,
			"target":34962
		},
		{
			"buffer":0,
			"byteLength":14460,
			"byteOffset":591108,
			"target":34963
		},
		{
			"buffer":0,
			"byteLength":5760,
			"byteOffset":605568,
			"target":34962
		},
		{
			"buffer":0,
			"byteLength":5760,
			"byteOffset":611328,
			"target":34962
		},
		{
			"buffer":0,
			"byteLength":1872,
			"byteOffset":617088,
			"target":34963
		}
	],
	"buffers":[
		{
			"byteLength":618960,
			"uri":"data:application/octet-stream;base64,"
		}
	]
}
