{
	"asset":{
		"generator":"Khronos glTF Blender I/O v3.5.30",
		"version":"2.0"
	},
	"scene":0,
	"scenes":[
		{
			"name":"Scene",
			"nodes":[
				0,
				1,
				2,
				3,
				4,
				5
			]
		}
	],
	"nodes":[
		{
			"mesh":0,
			"name":"5",
			"translation":[
				-39.17185592651367,
				-40,
				-20.066673278808594
			]
		},
		{
			"mesh":1,
			"name":"4",
			"translation":[
				-39.17185592651367,
				60,
				-20.066673278808594
			]
		},
		{
			"mesh":2,
			"name":"3",
			"translation":[
				-39.17185592651367,
				20,
				-20.066673278808594
			]
		},
		{
			"mesh":3,
			"name":"2",
			"translation":[
				-39.17185592651367,
				-20,
				-20.066673278808594
			]
		},
		{
			"mesh":4,
			"name":"1",
			"translation":[
				-39.17185592651367,
				80,
				-20.066673278808594
			]
		},
		{
			"mesh":5,
			"name":"0",
			"translation":[
				-39.17185592651367,
				90,
				-20.066673278808594
			]
		}
	],
	"animations":[
		{
			"channels":[
				{
					"sampler":0,
					"target":{
						"node":0,
						"path":"translation"
					}
				},
				{
					"sampler":1,
					"target":{
						"node":1,
						"path":"translation"
					}
				},
				{
					"sampler":2,
					"target":{
						"node":2,
						"path":"translation"
					}
				},
				{
					"sampler":3,
					"target":{
						"node":3,
						"path":"translation"
					}
				},
				{
					"sampler":4,
					"target":{
						"node":4,
						"path":"translation"
					}
				},
				{
					"sampler":5,
					"target":{
						"node":5,
						"path":"translation"
					}
				}
			],
			"name":"Animation",
			"samplers":[
				{
					"input":18,
					"interpolation":"LINEAR",
					"output":19
				},
				{
					"input":20,
					"interpolation":"LINEAR",
					"output":21
				},
				{
					"input":22,
					"interpolation":"LINEAR",
					"output":23
				},
				{
					"input":22,
					"interpolation":"LINEAR",
					"output":24
				},
				{
					"input":25,
					"interpolation":"LINEAR",
					"output":26
				},
				{
					"input":27,
					"interpolation":"LINEAR",
					"output":28
				}
			]
		}
	],
	"materials":[
		{
			"doubleSided":true,
			"name":"Material",
			"pbrMetallicRoughness":{
				"baseColorFactor":[
					0.6514058709144592,
					0.08865540474653244,
					0,
					1
				],
				"metallicFactor":0,
				"roughnessFactor":0.5
			}
		},
		{
			"doubleSided":true,
			"name":"Material.001",
			"pbrMetallicRoughness":{
				"baseColorFactor":[
					0.21223044395446777,
					0.26225045323371887,
					0.26635563373565674,
					1
				],
				"metallicFactor":0,
				"roughnessFactor":0.5
			}
		},
		{
			"doubleSided":true,
			"name":"Material.002",
			"pbrMetallicRoughness":{
				"baseColorFactor":[
					0.022173414006829262,
					0.2158602774143219,
					0.4851498305797577,
					1
				],
				"metallicFactor":0,
				"roughnessFactor":0.5
			}
		}
	],
	"meshes":[
		{
			"name":"5",
			"primitives":[
				{
					"attributes":{
						"POSITION":0,
						"NORMAL":1
					},
					"indices":2,
					"material":0
				}
			]
		},
		{
			"name":"4",
			"primitives":[
				{
					"attributes":{
						"POSITION":3,
						"NORMAL":4
					},
					"indices":5,
					"material":1
				}
			]
		},
		{
			"name":"3",
			"primitives":[
				{
					"attributes":{
						"POSITION":6,
						"NORMAL":7
					},
					"indices":8,
					"material":0
				}
			]
		},
		{
			"name":"2",
			"primitives":[
				{
					"attributes":{
						"POSITION":9,
						"NORMAL":10
					},
					"indices":11,
					"material":0
				}
			]
		},
		{
			"name":"1",
			"primitives":[
				{
					"attributes":{
						"POSITION":12,
						"NORMAL":13
					},
					"indices":14,
					"material":0
				}
			]
		},
		{
			"name":"0",
			"primitives":[
				{
					"attributes":{
						"POSITION":15,
						"NORMAL":16
					},
					"indices":17,
					"material":2
				}
			]
		}
	],
	"accessors":[
		{
			"bufferView":0,
			"componentType":5126,
			"count":480,
			"max":[
				83.375,
				2.878999948501587,
				63.749996185302734
			],
			"min":[
				-3.469989776611328,
				-5.2189367532999055e-15,
				-23.095003128051758
			],
			"type":"VEC3"
		},
		{
			"bufferView":1,
			"componentType":5126,
			"count":480,
			"type":"VEC3"
		},
		{
			"bufferView":2,
			"componentType":5123,
			"count":1008,
			"type":"SCALAR"
		},
		{
			"bufferView":3,
			"componentType":5126,
			"count":243,
			"max":[
				54.632633209228516,
				59,
				35.007633209228516
			],
			"min":[
				25.27236557006836,
				20.703998565673828,
				5.647365570068359
			],
			"type":"VEC3"
		},
		{
			"bufferView":4,
			"componentType":5126,
			"count":243,
			"type":"VEC3"
		},
		{
			"bufferView":5,
			"componentType":5123,
			"count":468,
			"type":"SCALAR"
		},
		{
			"bufferView":6,
			"componentType":5126,
			"count":240,
			"max":[
				80.03500366210938,
				50.704002380371094,
				21.766996383666992
			],
			"min":[
				-0.12999582290649414,
				-2.842170943040401e-14,
				18.887996673583984
			],
			"type":"VEC3"
		},
		{
			"bufferView":7,
			"componentType":5126,
			"count":240,
			"type":"VEC3"
		},
		{
			"bufferView":8,
			"componentType":5123,
			"count":468,
			"type":"SCALAR"
		},
		{
			"bufferView":9,
			"componentType":5126,
			"count":242,
			"max":[
				41.39200210571289,
				50.704002380371094,
				60.409996032714844
			],
			"min":[
				38.513004302978516,
				1.9073486328125e-06,
				-19.7550048828125
			],
			"type":"VEC3"
		},
		{
			"bufferView":10,
			"componentType":5126,
			"count":242,
			"type":"VEC3"
		},
		{
			"bufferView":11,
			"componentType":5123,
			"count":468,
			"type":"SCALAR"
		},
		{
			"bufferView":12,
			"componentType":5126,
			"count":480,
			"max":[
				70.01451110839844,
				50.70399856567383,
				50.389495849609375
			],
			"min":[
				9.8905029296875,
				47.82499694824219,
				-9.7344970703125
			],
			"type":"VEC3"
		},
		{
			"bufferView":13,
			"componentType":5126,
			"count":480,
			"type":"VEC3"
		},
		{
			"bufferView":14,
			"componentType":5123,
			"count":1008,
			"type":"SCALAR"
		},
		{
			"bufferView":15,
			"componentType":5126,
			"count":384,
			"max":[
				82.9530029296875,
				59,
				63.327999114990234
			],
			"min":[
				-3.046999931335449,
				57,
				-22.67300033569336
			],
			"type":"VEC3"
		},
		{
			"bufferView":16,
			"componentType":5126,
			"count":384,
			"type":"VEC3"
		},
		{
			"bufferView":17,
			"componentType":5123,
			"count":756,
			"type":"SCALAR"
		},
		{
			"bufferView":18,
			"componentType":5126,
			"count":31,
			"max":[
				4.166666666666667
			],
			"min":[
				2.9166666666666665
			],
			"type":"SCALAR"
		},
		{
			"bufferView":19,
			"componentType":5126,
			"count":31,
			"type":"VEC3"
		},
		{
			"bufferView":20,
			"componentType":5126,
			"count":31,
			"max":[
				2.9166666666666665
			],
			"min":[
				1.6666666666666667
			],
			"type":"SCALAR"
		},
		{
			"bufferView":21,
			"componentType":5126,
			"count":31,
			"type":"VEC3"
		},
		{
			"bufferView":22,
			"componentType":5126,
			"count":30,
			"max":[
				1.25
			],
			"min":[
				0.041666666666666664
			],
			"type":"SCALAR"
		},
		{
			"bufferView":23,
			"componentType":5126,
			"count":30,
			"type":"VEC3"
		},
		{
			"bufferView":24,
			"componentType":5126,
			"count":30,
			"type":"VEC3"
		},
		{
			"bufferView":25,
			"componentType":5126,
			"count":30,
			"max":[
				4.125
			],
			"min":[
				2.9166666666666665
			],
			"type":"SCALAR"
		},
		{
			"bufferView":26,
			"componentType":5126,
			"count":30,
			"type":"VEC3"
		},
		{
			"bufferView":27,
			"componentType":5126,
			"count":31,
			"max":[
				5.833333333333333
			],
			"min":[
				4.583333333333333
			],
			"type":"SCALAR"
		},
		{
			"bufferView":28,
			"componentType":5126,
			"count":31,
			"type":"VEC3"
		}
	],
	"bufferViews":[
		{
			"buffer":0,
			"byteLength":5760,
			"byteOffset":0,
			"target":34962
		},
		{
			"buffer":0,
			"byteLength":5760,
			"byteOffset":5760,
			"target":34962
		},
		{
			"buffer":0,
			"byteLength":2016,
			"byteOffset":11520,
			"target":34963
		},
		{
			"buffer":0,
			"byteLength":2916,
			"byteOffset":13536,
			"target":34962
		},
		{
			"buffer":0,
			"byteLength":2916,
			"byteOffset":16452,
			"target":34962
		},
		{
			"buffer":0,
			"byteLength":936,
			"byteOffset":19368,
			"target":34963
		},
		{
			"buffer":0,
			"byteLength":2880,
			"byteOffset":20304,
			"target":34962
		},
		{
			"buffer":0,
			"byteLength":2880,
			"byteOffset":23184,
			"target":34962
		},
		{
			"buffer":0,
			"byteLength":936,
			"byteOffset":26064,
			"target":34963
		},
		{
			"buffer":0,
			"byteLength":2904,
			"byteOffset":27000,
			"target":34962
		},
		{
			"buffer":0,
			"byteLength":2904,
			"byteOffset":29904,
			"target":34962
		},
		{
			"buffer":0,
			"byteLength":936,
			"byteOffset":32808,
			"target":34963
		},
		{
			"buffer":0,
			"byteLength":5760,
			"byteOffset":33744,
			"target":34962
		},
		{
			"buffer":0,
			"byteLength":5760,
			"byteOffset":39504,
			"target":34962
		},
		{
			"buffer":0,
			"byteLength":2016,
			"byteOffset":45264,
			"target":34963
		},
		{
			"buffer":0,
			"byteLength":4608,
			"byteOffset":47280,
			"target":34962
		},
		{
			"buffer":0,
			"byteLength":4608,
			"byteOffset":51888,
			"target":34962
		},
		{
			"buffer":0,
			"byteLength":1512,
			"byteOffset":56496,
			"target":34963
		},
		{
			"buffer":0,
			"byteLength":124,
			"byteOffset":58008
		},
		{
			"buffer":0,
			"byteLength":372,
			"byteOffset":58132
		},
		{
			"buffer":0,
			"byteLength":124,
			"byteOffset":58504
		},
		{
			"buffer":0,
			"byteLength":372,
			"byteOffset":58628
		},
		{
			"buffer":0,
			"byteLength":120,
			"byteOffset":59000
		},
		{
			"buffer":0,
			"byteLength":360,
			"byteOffset":59120
		},
		{
			"buffer":0,
			"byteLength":360,
			"byteOffset":59480
		},
		{
			"buffer":0,
			"byteLength":120,
			"byteOffset":59840
		},
		{
			"buffer":0,
			"byteLength":360,
			"byteOffset":59960
		},
		{
			"buffer":0,
			"byteLength":124,
			"byteOffset":60320
		},
		{
			"buffer":0,
			"byteLength":372,
			"byteOffset":60444
		}
	],
	"buffers":[
		{
			"byteLength":60816,
			"uri":"data:application/octet-stream;base64,"
		}
	]
}
